# gen_kerbal.py: the EVA placeholder capsule
v 0.00000000 0.00000000 -0.85000000
v 0.07276909 0.00000000 -0.84235166
v 0.14235783 0.00000000 -0.81974091
v 0.20572484 0.00000000 -0.78315595
v 0.26010069 0.00000000 -0.73419571
v 0.30310889 0.00000000 -0.67500000
v 0.33286978 0.00000000 -0.60815595
v 0.34808266 0.00000000 -0.53658496
v 0.34808266 0.00000000 0.53658496
v 0.33286978 0.00000000 0.60815595
v 0.30310889 0.00000000 0.67500000
v 0.26010069 0.00000000 0.73419571
v 0.20572484 0.00000000 0.78315595
v 0.14235783 0.00000000 0.81974091
v 0.07276909 0.00000000 0.84235166
v 0.00000000 0.00000000 0.85000000
v 0.06722987 0.02784753 -0.84235166
v 0.13152148 0.05447798 -0.81974091
v 0.19006497 0.07872749 -0.78315595
v 0.24030170 0.09953622 -0.73419571
v 0.28003610 0.11599475 -0.67500000
v 0.30753158 0.12738375 -0.60815595
v 0.32158645 0.13320547 -0.53658496
v 0.32158645 0.13320547 0.53658496
v 0.30753158 0.12738375 0.60815595
v 0.28003610 0.11599475 0.67500000
v 0.24030170 0.09953622 0.73419571
v 0.19006497 0.07872749 0.78315595
v 0.13152148 0.05447798 0.81974091
v 0.06722987 0.02784753 0.84235166
v 0.05145552 0.05145552 -0.84235166
v 0.10066218 0.10066218 -0.81974091
v 0.14546943 0.14546943 -0.78315595
v 0.18391896 0.18391896 -0.73419571
v 0.21433035 0.21433035 -0.67500000
v 0.23537448 0.23537448 -0.60815595
v 0.24613161 0.24613161 -0.53658496
v 0.24613161 0.24613161 0.53658496
v 0.23537448 0.23537448 0.60815595
v 0.21433035 0.21433035 0.67500000
v 0.18391896 0.18391896 0.73419571
v 0.14546943 0.14546943 0.78315595
v 0.10066218 0.10066218 0.81974091
v 0.05145552 0.05145552 0.84235166
v 0.02784753 0.06722987 -0.84235166
v 0.05447798 0.13152148 -0.81974091
v 0.07872749 0.19006497 -0.78315595
v 0.09953622 0.24030170 -0.73419571
v 0.11599475 0.28003610 -0.67500000
v 0.12738375 0.30753158 -0.60815595
v 0.13320547 0.32158645 -0.53658496
v 0.13320547 0.32158645 0.53658496
v 0.12738375 0.30753158 0.60815595
v 0.11599475 0.28003610 0.67500000
v 0.09953622 0.24030170 0.73419571
v 0.07872749 0.19006497 0.78315595
v 0.05447798 0.13152148 0.81974091
v 0.02784753 0.06722987 0.84235166
v 0.00000000 0.07276909 -0.84235166
v 0.00000000 0.14235783 -0.81974091
v 0.00000000 0.20572484 -0.78315595
v 0.00000000 0.26010069 -0.73419571
v 0.00000000 0.30310889 -0.67500000
v 0.00000000 0.33286978 -0.60815595
v 0.00000000 0.34808266 -0.53658496
v 0.00000000 0.34808266 0.53658496
v 0.00000000 0.33286978 0.60815595
v 0.00000000 0.30310889 0.67500000
v 0.00000000 0.26010069 0.73419571
v 0.00000000 0.20572484 0.78315595
v 0.00000000 0.14235783 0.81974091
v 0.00000000 0.07276909 0.84235166
v -0.02784753 0.06722987 -0.84235166
v -0.05447798 0.13152148 -0.81974091
v -0.07872749 0.19006497 -0.78315595
v -0.09953622 0.24030170 -0.73419571
v -0.11599475 0.28003610 -0.67500000
v -0.12738375 0.30753158 -0.60815595
v -0.13320547 0.32158645 -0.53658496
v -0.13320547 0.32158645 0.53658496
v -0.12738375 0.30753158 0.60815595
v -0.11599475 0.28003610 0.67500000
v -0.09953622 0.24030170 0.73419571
v -0.07872749 0.19006497 0.78315595
v -0.05447798 0.13152148 0.81974091
v -0.02784753 0.06722987 0.84235166
v -0.05145552 0.05145552 -0.84235166
v -0.10066218 0.10066218 -0.81974091
v -0.14546943 0.14546943 -0.78315595
v -0.18391896 0.18391896 -0.73419571
v -0.21433035 0.21433035 -0.67500000
v -0.23537448 0.23537448 -0.60815595
v -0.24613161 0.24613161 -0.53658496
v -0.24613161 0.24613161 0.53658496
v -0.23537448 0.23537448 0.60815595
v -0.21433035 0.21433035 0.67500000
v -0.18391896 0.18391896 0.73419571
v -0.14546943 0.14546943 0.78315595
v -0.10066218 0.10066218 0.81974091
v -0.05145552 0.05145552 0.84235166
v -0.06722987 0.02784753 -0.84235166
v -0.13152148 0.05447798 -0.81974091
v -0.19006497 0.07872749 -0.78315595
v -0.24030170 0.09953622 -0.73419571
v -0.28003610 0.11599475 -0.67500000
v -0.30753158 0.12738375 -0.60815595
v -0.32158645 0.13320547 -0.53658496
v -0.32158645 0.13320547 0.53658496
v -0.30753158 0.12738375 0.60815595
v -0.28003610 0.11599475 0.67500000
v -0.24030170 0.09953622 0.73419571
v -0.19006497 0.07872749 0.78315595
v -0.13152148 0.05447798 0.81974091
v -0.06722987 0.02784753 0.84235166
v -0.07276909 0.00000000 -0.84235166
v -0.14235783 0.00000000 -0.81974091
v -0.20572484 0.00000000 -0.78315595
v -0.26010069 0.00000000 -0.73419571
v -0.30310889 0.00000000 -0.67500000
v -0.33286978 0.00000000 -0.60815595
v -0.34808266 0.00000000 -0.53658496
v -0.34808266 0.00000000 0.53658496
v -0.33286978 0.00000000 0.60815595
v -0.30310889 0.00000000 0.67500000
v -0.26010069 0.00000000 0.73419571
v -0.20572484 0.00000000 0.78315595
v -0.14235783 0.00000000 0.81974091
v -0.07276909 0.00000000 0.84235166
v -0.06722987 -0.02784753 -0.84235166
v -0.13152148 -0.05447798 -0.81974091
v -0.19006497 -0.07872749 -0.78315595
v -0.24030170 -0.09953622 -0.73419571
v -0.28003610 -0.11599475 -0.67500000
v -0.30753158 -0.12738375 -0.60815595
v -0.32158645 -0.13320547 -0.53658496
v -0.32158645 -0.13320547 0.53658496
v -0.30753158 -0.12738375 0.60815595
v -0.28003610 -0.11599475 0.67500000
v -0.24030170 -0.09953622 0.73419571
v -0.19006497 -0.07872749 0.78315595
v -0.13152148 -0.05447798 0.81974091
v -0.06722987 -0.02784753 0.84235166
v -0.05145552 -0.05145552 -0.84235166
v -0.10066218 -0.10066218 -0.81974091
v -0.14546943 -0.14546943 -0.78315595
v -0.18391896 -0.18391896 -0.73419571
v -0.21433035 -0.21433035 -0.67500000
v -0.23537448 -0.23537448 -0.60815595
v -0.24613161 -0.24613161 -0.53658496
v -0.24613161 -0.24613161 0.53658496
v -0.23537448 -0.23537448 0.60815595
v -0.21433035 -0.21433035 0.67500000
v -0.18391896 -0.18391896 0.73419571
v -0.14546943 -0.14546943 0.78315595
v -0.10066218 -0.10066218 0.81974091
v -0.05145552 -0.05145552 0.84235166
v -0.02784753 -0.06722987 -0.84235166
v -0.05447798 -0.13152148 -0.81974091
v -0.07872749 -0.19006497 -0.78315595
v -0.09953622 -0.24030170 -0.73419571
v -0.11599475 -0.28003610 -0.67500000
v -0.12738375 -0.30753158 -0.60815595
v -0.13320547 -0.32158645 -0.53658496
v -0.13320547 -0.32158645 0.53658496
v -0.12738375 -0.30753158 0.60815595
v -0.11599475 -0.28003610 0.67500000
v -0.09953622 -0.24030170 0.73419571
v -0.07872749 -0.19006497 0.78315595
v -0.05447798 -0.13152148 0.81974091
v -0.02784753 -0.06722987 0.84235166
v -0.00000000 -0.07276909 -0.84235166
v -0.00000000 -0.14235783 -0.81974091
v -0.00000000 -0.20572484 -0.78315595
v -0.00000000 -0.26010069 -0.73419571
v -0.00000000 -0.30310889 -0.67500000
v -0.00000000 -0.33286978 -0.60815595
v -0.00000000 -0.34808266 -0.53658496
v -0.00000000 -0.34808266 0.53658496
v -0.00000000 -0.33286978 0.60815595
v -0.00000000 -0.30310889 0.67500000
v -0.00000000 -0.26010069 0.73419571
v -0.00000000 -0.20572484 0.78315595
v -0.00000000 -0.14235783 0.81974091
v -0.00000000 -0.07276909 0.84235166
v 0.02784753 -0.06722987 -0.84235166
v 0.05447798 -0.13152148 -0.81974091
v 0.07872749 -0.19006497 -0.78315595
v 0.09953622 -0.24030170 -0.73419571
v 0.11599475 -0.28003610 -0.67500000
v 0.12738375 -0.30753158 -0.60815595
v 0.13320547 -0.32158645 -0.53658496
v 0.13320547 -0.32158645 0.53658496
v 0.12738375 -0.30753158 0.60815595
v 0.11599475 -0.28003610 0.67500000
v 0.09953622 -0.24030170 0.73419571
v 0.07872749 -0.19006497 0.78315595
v 0.05447798 -0.13152148 0.81974091
v 0.02784753 -0.06722987 0.84235166
v 0.05145552 -0.05145552 -0.84235166
v 0.10066218 -0.10066218 -0.81974091
v 0.14546943 -0.14546943 -0.78315595
v 0.18391896 -0.18391896 -0.73419571
v 0.21433035 -0.21433035 -0.67500000
v 0.23537448 -0.23537448 -0.60815595
v 0.24613161 -0.24613161 -0.53658496
v 0.24613161 -0.24613161 0.53658496
v 0.23537448 -0.23537448 0.60815595
v 0.21433035 -0.21433035 0.67500000
v 0.18391896 -0.18391896 0.73419571
v 0.14546943 -0.14546943 0.78315595
v 0.10066218 -0.10066218 0.81974091
v 0.05145552 -0.05145552 0.84235166
v 0.06722987 -0.02784753 -0.84235166
v 0.13152148 -0.05447798 -0.81974091
v 0.19006497 -0.07872749 -0.78315595
v 0.24030170 -0.09953622 -0.73419571
v 0.28003610 -0.11599475 -0.67500000
v 0.30753158 -0.12738375 -0.60815595
v 0.32158645 -0.13320547 -0.53658496
v 0.32158645 -0.13320547 0.53658496
v 0.30753158 -0.12738375 0.60815595
v 0.28003610 -0.11599475 0.67500000
v 0.24030170 -0.09953622 0.73419571
v 0.19006497 -0.07872749 0.78315595
v 0.13152148 -0.05447798 0.81974091
v 0.06722987 -0.02784753 0.84235166
vn 0.000000 -0.000000 -1.000000
vn 0.220341 -0.000000 -0.975423
vn 0.417515 -0.000000 -0.908670
vn 0.596190 -0.000000 -0.802844
vn 0.748864 -0.000000 -0.662723
vn 0.869205 -0.000000 -0.494451
vn 0.952267 -0.000000 -0.305265
vn 0.994660 -0.000000 -0.103204
vn 0.994660 -0.000000 0.103204
vn 0.952267 -0.000000 0.305265
vn 0.869205 -0.000000 0.494451
vn 0.748864 -0.000000 0.662723
vn 0.596190 -0.000000 0.802844
vn 0.417515 -0.000000 0.908670
vn 0.220341 0.000000 0.975423
vn 0.000000 -0.000000 1.000000
vn 0.203568 0.084321 -0.975423
vn 0.385733 0.159776 -0.908670
vn 0.550808 0.228152 -0.802844
vn 0.691861 0.286578 -0.662723
vn 0.803041 0.332631 -0.494451
vn 0.879780 0.364417 -0.305265
vn 0.918946 0.380640 -0.103204
vn 0.918946 0.380640 0.103204
vn 0.879780 0.364417 0.305265
vn 0.803041 0.332631 0.494451
vn 0.691861 0.286578 0.662723
vn 0.550808 0.228152 0.802844
vn 0.385733 0.159776 0.908670
vn 0.203568 0.084321 0.975423
vn 0.155804 0.155804 -0.975423
vn 0.295228 0.295228 -0.908670
vn 0.421570 0.421570 -0.802844
vn 0.529527 0.529527 -0.662723
vn 0.614621 0.614621 -0.494451
vn 0.673355 0.673355 -0.305265
vn 0.703331 0.703331 -0.103204
vn 0.703331 0.703331 0.103204
vn 0.673355 0.673355 0.305265
vn 0.614621 0.614621 0.494451
vn 0.529527 0.529527 0.662723
vn 0.421570 0.421570 0.802844
vn 0.295228 0.295228 0.908670
vn 0.155804 0.155804 0.975423
vn 0.084321 0.203568 -0.975423
vn 0.159776 0.385733 -0.908670
vn 0.228152 0.550808 -0.802844
vn 0.286578 0.691861 -0.662723
vn 0.332631 0.803041 -0.494451
vn 0.364417 0.879780 -0.305265
vn 0.380640 0.918946 -0.103204
vn 0.380640 0.918946 0.103204
vn 0.364417 0.879780 0.305265
vn 0.332631 0.803041 0.494451
vn 0.286578 0.691861 0.662723
vn 0.228152 0.550808 0.802844
vn 0.159776 0.385733 0.908670
vn 0.084321 0.203568 0.975423
vn 0.000000 0.220341 -0.975423
vn -0.000000 0.417515 -0.908670
vn -0.000000 0.596190 -0.802844
vn -0.000000 0.748864 -0.662723
vn 0.000000 0.869205 -0.494451
vn -0.000000 0.952267 -0.305265
vn 0.000000 0.994660 -0.103204
vn 0.000000 0.994660 0.103204
vn -0.000000 0.952267 0.305265
vn -0.000000 0.869205 0.494451
vn 0.000000 0.748864 0.662723
vn 0.000000 0.596190 0.802844
vn -0.000000 0.417515 0.908670
vn -0.000000 0.220341 0.975423
vn -0.084321 0.203568 -0.975423
vn -0.159776 0.385733 -0.908670
vn -0.228152 0.550808 -0.802844
vn -0.286578 0.691861 -0.662723
vn -0.332631 0.803041 -0.494451
vn -0.364417 0.879780 -0.305265
vn -0.380640 0.918946 -0.103204
vn -0.380640 0.918946 0.103204
vn -0.364417 0.879780 0.305265
vn -0.332631 0.803041 0.494451
vn -0.286578 0.691861 0.662723
vn -0.228152 0.550808 0.802844
vn -0.159776 0.385733 0.908670
vn -0.084321 0.203568 0.975423
vn -0.155804 0.155804 -0.975423
vn -0.295228 0.295228 -0.908670
vn -0.421570 0.421570 -0.802844
vn -0.529527 0.529527 -0.662723
vn -0.614621 0.614621 -0.494451
vn -0.673355 0.673355 -0.305265
vn -0.703331 0.703331 -0.103204
vn -0.703331 0.703331 0.103204
vn -0.673355 0.673355 0.305265
vn -0.614621 0.614621 0.494451
vn -0.529527 0.529527 0.662723
vn -0.421570 0.421570 0.802844
vn -0.295228 0.295228 0.908670
vn -0.155804 0.155804 0.975423
vn -0.203568 0.084321 -0.975423
vn -0.385733 0.159776 -0.908670
vn -0.550808 0.228152 -0.802844
vn -0.691861 0.286578 -0.662723
vn -0.803041 0.332631 -0.494451
vn -0.879780 0.364417 -0.305265
vn -0.918946 0.380640 -0.103204
vn -0.918946 0.380640 0.103204
vn -0.879780 0.364417 0.305265
vn -0.803041 0.332631 0.494451
vn -0.691861 0.286578 0.662723
vn -0.550808 0.228152 0.802844
vn -0.385733 0.159776 0.908670
vn -0.203568 0.084321 0.975423
vn -0.220341 0.000000 -0.975423
vn -0.417515 0.000000 -0.908670
vn -0.596190 0.000000 -0.802844
vn -0.748864 0.000000 -0.662723
vn -0.869205 0.000000 -0.494451
vn -0.952267 0.000000 -0.305265
vn -0.994660 0.000000 -0.103204
vn -0.994660 0.000000 0.103204
vn -0.952267 -0.000000 0.305265
vn -0.869205 0.000000 0.494451
vn -0.748864 0.000000 0.662723
vn -0.596190 0.000000 0.802844
vn -0.417515 0.000000 0.908670
vn -0.220341 0.000000 0.975423
vn -0.203568 -0.084321 -0.975423
vn -0.385733 -0.159776 -0.908670
vn -0.550808 -0.228152 -0.802844
vn -0.691861 -0.286578 -0.662723
vn -0.803041 -0.332631 -0.494451
vn -0.879780 -0.364417 -0.305265
vn -0.918946 -0.380640 -0.103204
vn -0.918946 -0.380640 0.103204
vn -0.879780 -0.364417 0.305265
vn -0.803041 -0.332631 0.494451
vn -0.691861 -0.286578 0.662723
vn -0.550808 -0.228152 0.802844
vn -0.385733 -0.159776 0.908670
vn -0.203568 -0.084321 0.975423
vn -0.155804 -0.155804 -0.975423
vn -0.295228 -0.295228 -0.908670
vn -0.421570 -0.421570 -0.802844
vn -0.529527 -0.529527 -0.662723
vn -0.614621 -0.614621 -0.494451
vn -0.673355 -0.673355 -0.305265
vn -0.703331 -0.703331 -0.103204
vn -0.703331 -0.703331 0.103204
vn -0.673355 -0.673355 0.305265
vn -0.614621 -0.614621 0.494451
vn -0.529527 -0.529527 0.662723
vn -0.421570 -0.421570 0.802844
vn -0.295228 -0.295228 0.908670
vn -0.155804 -0.155804 0.975423
vn -0.084321 -0.203568 -0.975423
vn -0.159776 -0.385733 -0.908670
vn -0.228152 -0.550808 -0.802844
vn -0.286578 -0.691861 -0.662723
vn -0.332631 -0.803041 -0.494451
vn -0.364417 -0.879780 -0.305265
vn -0.380640 -0.918946 -0.103204
vn -0.380640 -0.918946 0.103204
vn -0.364417 -0.879780 0.305265
vn -0.332631 -0.803041 0.494451
vn -0.286578 -0.691861 0.662723
vn -0.228152 -0.550808 0.802844
vn -0.159776 -0.385733 0.908670
vn -0.084321 -0.203568 0.975423
vn -0.000000 -0.220341 -0.975423
vn -0.000000 -0.417515 -0.908670
vn -0.000000 -0.596190 -0.802844
vn -0.000000 -0.748864 -0.662723
vn -0.000000 -0.869205 -0.494451
vn -0.000000 -0.952267 -0.305265
vn -0.000000 -0.994660 -0.103204
vn -0.000000 -0.994660 0.103204
vn -0.000000 -0.952267 0.305265
vn -0.000000 -0.869205 0.494451
vn -0.000000 -0.748864 0.662723
vn -0.000000 -0.596190 0.802844
vn -0.000000 -0.417515 0.908670
vn -0.000000 -0.220341 0.975423
vn 0.084321 -0.203568 -0.975423
vn 0.159776 -0.385733 -0.908670
vn 0.228152 -0.550808 -0.802844
vn 0.286578 -0.691861 -0.662723
vn 0.332631 -0.803041 -0.494451
vn 0.364417 -0.879780 -0.305265
vn 0.380640 -0.918946 -0.103204
vn 0.380640 -0.918946 0.103204
vn 0.364417 -0.879780 0.305265
vn 0.332631 -0.803041 0.494451
vn 0.286578 -0.691861 0.662723
vn 0.228152 -0.550808 0.802844
vn 0.159776 -0.385733 0.908670
vn 0.084321 -0.203568 0.975423
vn 0.155804 -0.155804 -0.975423
vn 0.295228 -0.295228 -0.908670
vn 0.421570 -0.421570 -0.802844
vn 0.529527 -0.529527 -0.662723
vn 0.614621 -0.614621 -0.494451
vn 0.673355 -0.673355 -0.305265
vn 0.703331 -0.703331 -0.103204
vn 0.703331 -0.703331 0.103204
vn 0.673355 -0.673355 0.305265
vn 0.614621 -0.614621 0.494451
vn 0.529527 -0.529527 0.662723
vn 0.421570 -0.421570 0.802844
vn 0.295228 -0.295228 0.908670
vn 0.155804 -0.155804 0.975423
vn 0.203568 -0.084321 -0.975423
vn 0.385733 -0.159776 -0.908670
vn 0.550808 -0.228152 -0.802844
vn 0.691861 -0.286578 -0.662723
vn 0.803041 -0.332631 -0.494451
vn 0.879780 -0.364417 -0.305265
vn 0.918946 -0.380640 -0.103204
vn 0.918946 -0.380640 0.103204
vn 0.879780 -0.364417 0.305265
vn 0.803041 -0.332631 0.494451
vn 0.691861 -0.286578 0.662723
vn 0.550808 -0.228152 0.802844
vn 0.385733 -0.159776 0.908670
vn 0.203568 -0.084321 0.975423
f 2//2 1//1 17//17
f 2//2 17//17 3//3
f 3//3 17//17 18//18
f 3//3 18//18 4//4
f 4//4 18//18 19//19
f 4//4 19//19 5//5
f 5//5 19//19 20//20
f 5//5 20//20 6//6
f 6//6 20//20 21//21
f 6//6 21//21 7//7
f 7//7 21//21 22//22
f 7//7 22//22 8//8
f 8//8 22//22 23//23
f 8//8 23//23 9//9
f 9//9 23//23 24//24
f 9//9 24//24 10//10
f 10//10 24//24 25//25
f 10//10 25//25 11//11
f 11//11 25//25 26//26
f 11//11 26//26 12//12
f 12//12 26//26 27//27
f 12//12 27//27 13//13
f 13//13 27//27 28//28
f 13//13 28//28 14//14
f 14//14 28//28 29//29
f 14//14 29//29 15//15
f 15//15 29//29 30//30
f 15//15 30//30 16//16
f 17//17 1//1 31//31
f 17//17 31//31 18//18
f 18//18 31//31 32//32
f 18//18 32//32 19//19
f 19//19 32//32 33//33
f 19//19 33//33 20//20
f 20//20 33//33 34//34
f 20//20 34//34 21//21
f 21//21 34//34 35//35
f 21//21 35//35 22//22
f 22//22 35//35 36//36
f 22//22 36//36 23//23
f 23//23 36//36 37//37
f 23//23 37//37 24//24
f 24//24 37//37 38//38
f 24//24 38//38 25//25
f 25//25 38//38 39//39
f 25//25 39//39 26//26
f 26//26 39//39 40//40
f 26//26 40//40 27//27
f 27//27 40//40 41//41
f 27//27 41//41 28//28
f 28//28 41//41 42//42
f 28//28 42//42 29//29
f 29//29 42//42 43//43
f 29//29 43//43 30//30
f 30//30 43//43 44//44
f 30//30 44//44 16//16
f 31//31 1//1 45//45
f 31//31 45//45 32//32
f 32//32 45//45 46//46
f 32//32 46//46 33//33
f 33//33 46//46 47//47
f 33//33 47//47 34//34
f 34//34 47//47 48//48
f 34//34 48//48 35//35
f 35//35 48//48 49//49
f 35//35 49//49 36//36
f 36//36 49//49 50//50
f 36//36 50//50 37//37
f 37//37 50//50 51//51
f 37//37 51//51 38//38
f 38//38 51//51 52//52
f 38//38 52//52 39//39
f 39//39 52//52 53//53
f 39//39 53//53 40//40
f 40//40 53//53 54//54
f 40//40 54//54 41//41
f 41//41 54//54 55//55
f 41//41 55//55 42//42
f 42//42 55//55 56//56
f 42//42 56//56 43//43
f 43//43 56//56 57//57
f 43//43 57//57 44//44
f 44//44 57//57 58//58
f 44//44 58//58 16//16
f 45//45 1//1 59//59
f 45//45 59//59 46//46
f 46//46 59//59 60//60
f 46//46 60//60 47//47
f 47//47 60//60 61//61
f 47//47 61//61 48//48
f 48//48 61//61 62//62
f 48//48 62//62 49//49
f 49//49 62//62 63//63
f 49//49 63//63 50//50
f 50//50 63//63 64//64
f 50//50 64//64 51//51
f 51//51 64//64 65//65
f 51//51 65//65 52//52
f 52//52 65//65 66//66
f 52//52 66//66 53//53
f 53//53 66//66 67//67
f 53//53 67//67 54//54
f 54//54 67//67 68//68
f 54//54 68//68 55//55
f 55//55 68//68 69//69
f 55//55 69//69 56//56
f 56//56 69//69 70//70
f 56//56 70//70 57//57
f 57//57 70//70 71//71
f 57//57 71//71 58//58
f 58//58 71//71 72//72
f 58//58 72//72 16//16
f 59//59 1//1 73//73
f 59//59 73//73 60//60
f 60//60 73//73 74//74
f 60//60 74//74 61//61
f 61//61 74//74 75//75
f 61//61 75//75 62//62
f 62//62 75//75 76//76
f 62//62 76//76 63//63
f 63//63 76//76 77//77
f 63//63 77//77 64//64
f 64//64 77//77 78//78
f 64//64 78//78 65//65
f 65//65 78//78 79//79
f 65//65 79//79 66//66
f 66//66 79//79 80//80
f 66//66 80//80 67//67
f 67//67 80//80 81//81
f 67//67 81//81 68//68
f 68//68 81//81 82//82
f 68//68 82//82 69//69
f 69//69 82//82 83//83
f 69//69 83//83 70//70
f 70//70 83//83 84//84
f 70//70 84//84 71//71
f 71//71 84//84 85//85
f 71//71 85//85 72//72
f 72//72 85//85 86//86
f 72//72 86//86 16//16
f 73//73 1//1 87//87
f 73//73 87//87 74//74
f 74//74 87//87 88//88
f 74//74 88//88 75//75
f 75//75 88//88 89//89
f 75//75 89//89 76//76
f 76//76 89//89 90//90
f 76//76 90//90 77//77
f 77//77 90//90 91//91
f 77//77 91//91 78//78
f 78//78 91//91 92//92
f 78//78 92//92 79//79
f 79//79 92//92 93//93
f 79//79 93//93 80//80
f 80//80 93//93 94//94
f 80//80 94//94 81//81
f 81//81 94//94 95//95
f 81//81 95//95 82//82
f 82//82 95//95 96//96
f 82//82 96//96 83//83
f 83//83 96//96 97//97
f 83//83 97//97 84//84
f 84//84 97//97 98//98
f 84//84 98//98 85//85
f 85//85 98//98 99//99
f 85//85 99//99 86//86
f 86//86 99//99 100//100
f 86//86 100//100 16//16
f 87//87 1//1 101//101
f 87//87 101//101 88//88
f 88//88 101//101 102//102
f 88//88 102//102 89//89
f 89//89 102//102 103//103
f 89//89 103//103 90//90
f 90//90 103//103 104//104
f 90//90 104//104 91//91
f 91//91 104//104 105//105
f 91//91 105//105 92//92
f 92//92 105//105 106//106
f 92//92 106//106 93//93
f 93//93 106//106 107//107
f 93//93 107//107 94//94
f 94//94 107//107 108//108
f 94//94 108//108 95//95
f 95//95 108//108 109//109
f 95//95 109//109 96//96
f 96//96 109//109 110//110
f 96//96 110//110 97//97
f 97//97 110//110 111//111
f 97//97 111//111 98//98
f 98//98 111//111 112//112
f 98//98 112//112 99//99
f 99//99 112//112 113//113
f 99//99 113//113 100//100
f 100//100 113//113 114//114
f 100//100 114//114 16//16
f 101//101 1//1 115//115
f 101//101 115//115 102//102
f 102//102 115//115 116//116
f 102//102 116//116 103//103
f 103//103 116//116 117//117
f 103//103 117//117 104//104
f 104//104 117//117 118//118
f 104//104 118//118 105//105
f 105//105 118//118 119//119
f 105//105 119//119 106//106
f 106//106 119//119 120//120
f 106//106 120//120 107//107
f 107//107 120//120 121//121
f 107//107 121//121 108//108
f 108//108 121//121 122//122
f 108//108 122//122 109//109
f 109//109 122//122 123//123
f 109//109 123//123 110//110
f 110//110 123//123 124//124
f 110//110 124//124 111//111
f 111//111 124//124 125//125
f 111//111 125//125 112//112
f 112//112 125//125 126//126
f 112//112 126//126 113//113
f 113//113 126//126 127//127
f 113//113 127//127 114//114
f 114//114 127//127 128//128
f 114//114 128//128 16//16
f 115//115 1//1 129//129
f 115//115 129//129 116//116
f 116//116 129//129 130//130
f 116//116 130//130 117//117
f 117//117 130//130 131//131
f 117//117 131//131 118//118
f 118//118 131//131 132//132
f 118//118 132//132 119//119
f 119//119 132//132 133//133
f 119//119 133//133 120//120
f 120//120 133//133 134//134
f 120//120 134//134 121//121
f 121//121 134//134 135//135
f 121//121 135//135 122//122
f 122//122 135//135 136//136
f 122//122 136//136 123//123
f 123//123 136//136 137//137
f 123//123 137//137 124//124
f 124//124 137//137 138//138
f 124//124 138//138 125//125
f 125//125 138//138 139//139
f 125//125 139//139 126//126
f 126//126 139//139 140//140
f 126//126 140//140 127//127
f 127//127 140//140 141//141
f 127//127 141//141 128//128
f 128//128 141//141 142//142
f 128//128 142//142 16//16
f 129//129 1//1 143//143
f 129//129 143//143 130//130
f 130//130 143//143 144//144
f 130//130 144//144 131//131
f 131//131 144//144 145//145
f 131//131 145//145 132//132
f 132//132 145//145 146//146
f 132//132 146//146 133//133
f 133//133 146//146 147//147
f 133//133 147//147 134//134
f 134//134 147//147 148//148
f 134//134 148//148 135//135
f 135//135 148//148 149//149
f 135//135 149//149 136//136
f 136//136 149//149 150//150
f 136//136 150//150 137//137
f 137//137 150//150 151//151
f 137//137 151//151 138//138
f 138//138 151//151 152//152
f 138//138 152//152 139//139
f 139//139 152//152 153//153
f 139//139 153//153 140//140
f 140//140 153//153 154//154
f 140//140 154//154 141//141
f 141//141 154//154 155//155
f 141//141 155//155 142//142
f 142//142 155//155 156//156
f 142//142 156//156 16//16
f 143//143 1//1 157//157
f 143//143 157//157 144//144
f 144//144 157//157 158//158
f 144//144 158//158 145//145
f 145//145 158//158 159//159
f 145//145 159//159 146//146
f 146//146 159//159 160//160
f 146//146 160//160 147//147
f 147//147 160//160 161//161
f 147//147 161//161 148//148
f 148//148 161//161 162//162
f 148//148 162//162 149//149
f 149//149 162//162 163//163
f 149//149 163//163 150//150
f 150//150 163//163 164//164
f 150//150 164//164 151//151
f 151//151 164//164 165//165
f 151//151 165//165 152//152
f 152//152 165//165 166//166
f 152//152 166//166 153//153
f 153//153 166//166 167//167
f 153//153 167//167 154//154
f 154//154 167//167 168//168
f 154//154 168//168 155//155
f 155//155 168//168 169//169
f 155//155 169//169 156//156
f 156//156 169//169 170//170
f 156//156 170//170 16//16
f 157//157 1//1 171//171
f 157//157 171//171 158//158
f 158//158 171//171 172//172
f 158//158 172//172 159//159
f 159//159 172//172 173//173
f 159//159 173//173 160//160
f 160//160 173//173 174//174
f 160//160 174//174 161//161
f 161//161 174//174 175//175
f 161//161 175//175 162//162
f 162//162 175//175 176//176
f 162//162 176//176 163//163
f 163//163 176//176 177//177
f 163//163 177//177 164//164
f 164//164 177//177 178//178
f 164//164 178//178 165//165
f 165//165 178//178 179//179
f 165//165 179//179 166//166
f 166//166 179//179 180//180
f 166//166 180//180 167//167
f 167//167 180//180 181//181
f 167//167 181//181 168//168
f 168//168 181//181 182//182
f 168//168 182//182 169//169
f 169//169 182//182 183//183
f 169//169 183//183 170//170
f 170//170 183//183 184//184
f 170//170 184//184 16//16
f 171//171 1//1 185//185
f 171//171 185//185 172//172
f 172//172 185//185 186//186
f 172//172 186//186 173//173
f 173//173 186//186 187//187
f 173//173 187//187 174//174
f 174//174 187//187 188//188
f 174//174 188//188 175//175
f 175//175 188//188 189//189
f 175//175 189//189 176//176
f 176//176 189//189 190//190
f 176//176 190//190 177//177
f 177//177 190//190 191//191
f 177//177 191//191 178//178
f 178//178 191//191 192//192
f 178//178 192//192 179//179
f 179//179 192//192 193//193
f 179//179 193//193 180//180
f 180//180 193//193 194//194
f 180//180 194//194 181//181
f 181//181 194//194 195//195
f 181//181 195//195 182//182
f 182//182 195//195 196//196
f 182//182 196//196 183//183
f 183//183 196//196 197//197
f 183//183 197//197 184//184
f 184//184 197//197 198//198
f 184//184 198//198 16//16
f 185//185 1//1 199//199
f 185//185 199//199 186//186
f 186//186 199//199 200//200
f 186//186 200//200 187//187
f 187//187 200//200 201//201
f 187//187 201//201 188//188
f 188//188 201//201 202//202
f 188//188 202//202 189//189
f 189//189 202//202 203//203
f 189//189 203//203 190//190
f 190//190 203//203 204//204
f 190//190 204//204 191//191
f 191//191 204//204 205//205
f 191//191 205//205 192//192
f 192//192 205//205 206//206
f 192//192 206//206 193//193
f 193//193 206//206 207//207
f 193//193 207//207 194//194
f 194//194 207//207 208//208
f 194//194 208//208 195//195
f 195//195 208//208 209//209
f 195//195 209//209 196//196
f 196//196 209//209 210//210
f 196//196 210//210 197//197
f 197//197 210//210 211//211
f 197//197 211//211 198//198
f 198//198 211//211 212//212
f 198//198 212//212 16//16
f 199//199 1//1 213//213
f 199//199 213//213 200//200
f 200//200 213//213 214//214
f 200//200 214//214 201//201
f 201//201 214//214 215//215
f 201//201 215//215 202//202
f 202//202 215//215 216//216
f 202//202 216//216 203//203
f 203//203 216//216 217//217
f 203//203 217//217 204//204
f 204//204 217//217 218//218
f 204//204 218//218 205//205
f 205//205 218//218 219//219
f 205//205 219//219 206//206
f 206//206 219//219 220//220
f 206//206 220//220 207//207
f 207//207 220//220 221//221
f 207//207 221//221 208//208
f 208//208 221//221 222//222
f 208//208 222//222 209//209
f 209//209 222//222 223//223
f 209//209 223//223 210//210
f 210//210 223//223 224//224
f 210//210 224//224 211//211
f 211//211 224//224 225//225
f 211//211 225//225 212//212
f 212//212 225//225 226//226
f 212//212 226//226 16//16
f 213//213 1//1 2//2
f 213//213 2//2 214//214
f 214//214 2//2 3//3
f 214//214 3//3 215//215
f 215//215 3//3 4//4
f 215//215 4//4 216//216
f 216//216 4//4 5//5
f 216//216 5//5 217//217
f 217//217 5//5 6//6
f 217//217 6//6 218//218
f 218//218 6//6 7//7
f 218//218 7//7 219//219
f 219//219 7//7 8//8
f 219//219 8//8 220//220
f 220//220 8//8 9//9
f 220//220 9//9 221//221
f 221//221 9//9 10//10
f 221//221 10//10 222//222
f 222//222 10//10 11//11
f 222//222 11//11 223//223
f 223//223 11//11 12//12
f 223//223 12//12 224//224
f 224//224 12//12 13//13
f 224//224 13//13 225//225
f 225//225 13//13 14//14
f 225//225 14//14 226//226
f 226//226 14//14 15//15
f 226//226 15//15 16//16
