# generated by gen_nose_cap.py (unit nose cap: r=1 h=0.5, flat)
o NoseCap
v 1.500000 0.000000 -0.375000
v 1.471178 0.292635 -0.375000
v 1.385820 0.574024 -0.375000
v 1.247205 0.833355 -0.375000
v 1.060661 1.060661 -0.375000
v 0.833355 1.247205 -0.375000
v 0.574024 1.385820 -0.375000
v 0.292635 1.471178 -0.375000
v 0.000000 1.500000 -0.375000
v -0.292635 1.471178 -0.375000
v -0.574024 1.385820 -0.375000
v -0.833355 1.247205 -0.375000
v -1.060661 1.060661 -0.375000
v -1.247205 0.833355 -0.375000
v -1.385820 0.574024 -0.375000
v -1.471178 0.292635 -0.375000
v -1.500000 0.000000 -0.375000
v -1.471178 -0.292635 -0.375000
v -1.385820 -0.574024 -0.375000
v -1.247205 -0.833355 -0.375000
v -1.060661 -1.060661 -0.375000
v -0.833355 -1.247205 -0.375000
v -0.574024 -1.385820 -0.375000
v -0.292635 -1.471178 -0.375000
v -0.000000 -1.500000 -0.375000
v 0.292635 -1.471178 -0.375000
v 0.574024 -1.385820 -0.375000
v 0.833355 -1.247205 -0.375000
v 1.060661 -1.060661 -0.375000
v 1.247205 -0.833355 -0.375000
v 1.385820 -0.574024 -0.375000
v 1.471178 -0.292635 -0.375000
v 0.000000 0.000000 0.375000
v 0.000000 0.000000 -0.375000
vt 0.000000 0.000000
vt 0.031250 0.000000
vt 0.062500 0.000000
vt 0.093750 0.000000
vt 0.125000 0.000000
vt 0.156250 0.000000
vt 0.187500 0.000000
vt 0.218750 0.000000
vt 0.250000 0.000000
vt 0.281250 0.000000
vt 0.312500 0.000000
vt 0.343750 0.000000
vt 0.375000 0.000000
vt 0.406250 0.000000
vt 0.437500 0.000000
vt 0.468750 0.000000
vt 0.500000 0.000000
vt 0.531250 0.000000
vt 0.562500 0.000000
vt 0.593750 0.000000
vt 0.625000 0.000000
vt 0.656250 0.000000
vt 0.687500 0.000000
vt 0.718750 0.000000
vt 0.750000 0.000000
vt 0.781250 0.000000
vt 0.812500 0.000000
vt 0.843750 0.000000
vt 0.875000 0.000000
vt 0.906250 0.000000
vt 0.937500 0.000000
vt 0.968750 0.000000
vt 0.000000 1.000000
vt 0.500000 0.500000
vn 0.446780 0.044004 0.893561
vn 0.000000 0.000000 -1.000000
vn 0.429611 0.130321 0.893561
vn 0.000000 0.000000 -1.000000
vn 0.395932 0.211630 0.893561
vn 0.000000 0.000000 -1.000000
vn 0.347037 0.284806 0.893561
vn 0.000000 0.000000 -1.000000
vn 0.284806 0.347037 0.893561
vn 0.000000 0.000000 -1.000000
vn 0.211630 0.395932 0.893561
vn 0.000000 0.000000 -1.000000
vn 0.130321 0.429611 0.893561
vn 0.000000 0.000000 -1.000000
vn 0.044004 0.446780 0.893561
vn 0.000000 0.000000 -1.000000
vn -0.044004 0.446780 0.893561
vn 0.000000 0.000000 -1.000000
vn -0.130321 0.429611 0.893561
vn 0.000000 0.000000 -1.000000
vn -0.211630 0.395932 0.893561
vn 0.000000 0.000000 -1.000000
vn -0.284806 0.347037 0.893561
vn 0.000000 0.000000 -1.000000
vn -0.347037 0.284806 0.893561
vn 0.000000 0.000000 -1.000000
vn -0.395932 0.211630 0.893561
vn 0.000000 0.000000 -1.000000
vn -0.429611 0.130321 0.893561
vn 0.000000 0.000000 -1.000000
vn -0.446780 0.044004 0.893561
vn 0.000000 0.000000 -1.000000
vn -0.446780 -0.044004 0.893561
vn -0.000000 0.000000 -1.000000
vn -0.429611 -0.130321 0.893561
vn 0.000000 0.000000 -1.000000
vn -0.395932 -0.211630 0.893561
vn 0.000000 0.000000 -1.000000
vn -0.347037 -0.284806 0.893561
vn 0.000000 0.000000 -1.000000
vn -0.284806 -0.347037 0.893561
vn 0.000000 0.000000 -1.000000
vn -0.211630 -0.395932 0.893561
vn 0.000000 0.000000 -1.000000
vn -0.130321 -0.429611 0.893561
vn 0.000000 0.000000 -1.000000
vn -0.044004 -0.446780 0.893561
vn 0.000000 0.000000 -1.000000
vn 0.044004 -0.446780 0.893561
vn 0.000000 -0.000000 -1.000000
vn 0.130321 -0.429611 0.893561
vn 0.000000 0.000000 -1.000000
vn 0.211630 -0.395932 0.893561
vn 0.000000 0.000000 -1.000000
vn 0.284806 -0.347037 0.893561
vn 0.000000 0.000000 -1.000000
vn 0.347037 -0.284806 0.893561
vn 0.000000 0.000000 -1.000000
vn 0.395932 -0.211630 0.893561
vn 0.000000 0.000000 -1.000000
vn 0.429611 -0.130321 0.893561
vn 0.000000 0.000000 -1.000000
vn 0.446780 -0.044004 0.893561
vn 0.000000 0.000000 -1.000000
f 1/1/1 2/2/1 33/33/1
f 34/34/2 2/2/2 1/1/2
f 2/2/3 3/3/3 33/33/3
f 34/34/4 3/3/4 2/2/4
f 3/3/5 4/4/5 33/33/5
f 34/34/6 4/4/6 3/3/6
f 4/4/7 5/5/7 33/33/7
f 34/34/8 5/5/8 4/4/8
f 5/5/9 6/6/9 33/33/9
f 34/34/10 6/6/10 5/5/10
f 6/6/11 7/7/11 33/33/11
f 34/34/12 7/7/12 6/6/12
f 7/7/13 8/8/13 33/33/13
f 34/34/14 8/8/14 7/7/14
f 8/8/15 9/9/15 33/33/15
f 34/34/16 9/9/16 8/8/16
f 9/9/17 10/10/17 33/33/17
f 34/34/18 10/10/18 9/9/18
f 10/10/19 11/11/19 33/33/19
f 34/34/20 11/11/20 10/10/20
f 11/11/21 12/12/21 33/33/21
f 34/34/22 12/12/22 11/11/22
f 12/12/23 13/13/23 33/33/23
f 34/34/24 13/13/24 12/12/24
f 13/13/25 14/14/25 33/33/25
f 34/34/26 14/14/26 13/13/26
f 14/14/27 15/15/27 33/33/27
f 34/34/28 15/15/28 14/14/28
f 15/15/29 16/16/29 33/33/29
f 34/34/30 16/16/30 15/15/30
f 16/16/31 17/17/31 33/33/31
f 34/34/32 17/17/32 16/16/32
f 17/17/33 18/18/33 33/33/33
f 34/34/34 18/18/34 17/17/34
f 18/18/35 19/19/35 33/33/35
f 34/34/36 19/19/36 18/18/36
f 19/19/37 20/20/37 33/33/37
f 34/34/38 20/20/38 19/19/38
f 20/20/39 21/21/39 33/33/39
f 34/34/40 21/21/40 20/20/40
f 21/21/41 22/22/41 33/33/41
f 34/34/42 22/22/42 21/21/42
f 22/22/43 23/23/43 33/33/43
f 34/34/44 23/23/44 22/22/44
f 23/23/45 24/24/45 33/33/45
f 34/34/46 24/24/46 23/23/46
f 24/24/47 25/25/47 33/33/47
f 34/34/48 25/25/48 24/24/48
f 25/25/49 26/26/49 33/33/49
f 34/34/50 26/26/50 25/25/50
f 26/26/51 27/27/51 33/33/51
f 34/34/52 27/27/52 26/26/52
f 27/27/53 28/28/53 33/33/53
f 34/34/54 28/28/54 27/27/54
f 28/28/55 29/29/55 33/33/55
f 34/34/56 29/29/56 28/28/56
f 29/29/57 30/30/57 33/33/57
f 34/34/58 30/30/58 29/29/58
f 30/30/59 31/31/59 33/33/59
f 34/34/60 31/31/60 30/30/60
f 31/31/61 32/32/61 33/33/61
f 34/34/62 32/32/62 31/31/62
f 32/32/63 1/1/63 33/33/63
f 34/34/64 1/1/64 32/32/64
