# generated by gen_engine_shroud.py (open cylinder: r=2.205 h=2.25, 32 segs, flat)
o EngineShroud
v 2.205000 0.000000 -1.125000
v 2.162632 0.430174 -1.125000
v 2.037154 0.843817 -1.125000
v 1.833390 1.225032 -1.125000
v 1.559170 1.559170 -1.125000
v 1.225032 1.833390 -1.125000
v 0.843817 2.037154 -1.125000
v 0.430174 2.162632 -1.125000
v 0.000000 2.205000 -1.125000
v -0.430174 2.162632 -1.125000
v -0.843817 2.037154 -1.125000
v -1.225032 1.833390 -1.125000
v -1.559170 1.559170 -1.125000
v -1.833390 1.225032 -1.125000
v -2.037154 0.843817 -1.125000
v -2.162632 0.430174 -1.125000
v -2.205000 0.000000 -1.125000
v -2.162632 -0.430174 -1.125000
v -2.037154 -0.843817 -1.125000
v -1.833390 -1.225032 -1.125000
v -1.559170 -1.559170 -1.125000
v -1.225032 -1.833390 -1.125000
v -0.843817 -2.037154 -1.125000
v -0.430174 -2.162632 -1.125000
v -0.000000 -2.205000 -1.125000
v 0.430174 -2.162632 -1.125000
v 0.843817 -2.037154 -1.125000
v 1.225032 -1.833390 -1.125000
v 1.559170 -1.559170 -1.125000
v 1.833390 -1.225032 -1.125000
v 2.037154 -0.843817 -1.125000
v 2.162632 -0.430174 -1.125000
v 2.205000 0.000000 1.125000
v 2.162632 0.430174 1.125000
v 2.037154 0.843817 1.125000
v 1.833390 1.225032 1.125000
v 1.559170 1.559170 1.125000
v 1.225032 1.833390 1.125000
v 0.843817 2.037154 1.125000
v 0.430174 2.162632 1.125000
v 0.000000 2.205000 1.125000
v -0.430174 2.162632 1.125000
v -0.843817 2.037154 1.125000
v -1.225032 1.833390 1.125000
v -1.559170 1.559170 1.125000
v -1.833390 1.225032 1.125000
v -2.037154 0.843817 1.125000
v -2.162632 0.430174 1.125000
v -2.205000 0.000000 1.125000
v -2.162632 -0.430174 1.125000
v -2.037154 -0.843817 1.125000
v -1.833390 -1.225032 1.125000
v -1.559170 -1.559170 1.125000
v -1.225032 -1.833390 1.125000
v -0.843817 -2.037154 1.125000
v -0.430174 -2.162632 1.125000
v -0.000000 -2.205000 1.125000
v 0.430174 -2.162632 1.125000
v 0.843817 -2.037154 1.125000
v 1.225032 -1.833390 1.125000
v 1.559170 -1.559170 1.125000
v 1.833390 -1.225032 1.125000
v 2.037154 -0.843817 1.125000
v 2.162632 -0.430174 1.125000
vt 0.000000 0.000000
vt 0.031250 0.000000
vt 0.062500 0.000000
vt 0.093750 0.000000
vt 0.125000 0.000000
vt 0.156250 0.000000
vt 0.187500 0.000000
vt 0.218750 0.000000
vt 0.250000 0.000000
vt 0.281250 0.000000
vt 0.312500 0.000000
vt 0.343750 0.000000
vt 0.375000 0.000000
vt 0.406250 0.000000
vt 0.437500 0.000000
vt 0.468750 0.000000
vt 0.500000 0.000000
vt 0.531250 0.000000
vt 0.562500 0.000000
vt 0.593750 0.000000
vt 0.625000 0.000000
vt 0.656250 0.000000
vt 0.687500 0.000000
vt 0.718750 0.000000
vt 0.750000 0.000000
vt 0.781250 0.000000
vt 0.812500 0.000000
vt 0.843750 0.000000
vt 0.875000 0.000000
vt 0.906250 0.000000
vt 0.937500 0.000000
vt 0.968750 0.000000
vn 0.995185 0.098017 0.000000
vn 0.956940 0.290285 0.000000
vn 0.881921 0.471397 0.000000
vn 0.773010 0.634393 0.000000
vn 0.634393 0.773010 0.000000
vn 0.471397 0.881921 0.000000
vn 0.290285 0.956940 0.000000
vn 0.098017 0.995185 0.000000
vn -0.098017 0.995185 0.000000
vn -0.290285 0.956940 0.000000
vn -0.471397 0.881921 0.000000
vn -0.634393 0.773010 0.000000
vn -0.773010 0.634393 0.000000
vn -0.881921 0.471397 0.000000
vn -0.956940 0.290285 0.000000
vn -0.995185 0.098017 0.000000
vn -0.995185 -0.098017 0.000000
vn -0.956940 -0.290285 0.000000
vn -0.881921 -0.471397 0.000000
vn -0.773010 -0.634393 0.000000
vn -0.634393 -0.773010 0.000000
vn -0.471397 -0.881921 0.000000
vn -0.290285 -0.956940 0.000000
vn -0.098017 -0.995185 0.000000
vn 0.098017 -0.995185 0.000000
vn 0.290285 -0.956940 0.000000
vn 0.471397 -0.881921 0.000000
vn 0.634393 -0.773010 0.000000
vn 0.773010 -0.634393 0.000000
vn 0.881921 -0.471397 0.000000
vn 0.956940 -0.290285 0.000000
vn 0.995185 -0.098017 0.000000
f 1/1/1 2/2/1 34/2/1
f 1/1/1 34/2/1 33/1/1
f 2/2/2 3/3/2 35/3/2
f 2/2/2 35/3/2 34/2/2
f 3/3/3 4/4/3 36/4/3
f 3/3/3 36/4/3 35/3/3
f 4/4/4 5/5/4 37/5/4
f 4/4/4 37/5/4 36/4/4
f 5/5/5 6/6/5 38/6/5
f 5/5/5 38/6/5 37/5/5
f 6/6/6 7/7/6 39/7/6
f 6/6/6 39/7/6 38/6/6
f 7/7/7 8/8/7 40/8/7
f 7/7/7 40/8/7 39/7/7
f 8/8/8 9/9/8 41/9/8
f 8/8/8 41/9/8 40/8/8
f 9/9/9 10/10/9 42/10/9
f 9/9/9 42/10/9 41/9/9
f 10/10/10 11/11/10 43/11/10
f 10/10/10 43/11/10 42/10/10
f 11/11/11 12/12/11 44/12/11
f 11/11/11 44/12/11 43/11/11
f 12/12/12 13/13/12 45/13/12
f 12/12/12 45/13/12 44/12/12
f 13/13/13 14/14/13 46/14/13
f 13/13/13 46/14/13 45/13/13
f 14/14/14 15/15/14 47/15/14
f 14/14/14 47/15/14 46/14/14
f 15/15/15 16/16/15 48/16/15
f 15/15/15 48/16/15 47/15/15
f 16/16/16 17/17/16 49/17/16
f 16/16/16 49/17/16 48/16/16
f 17/17/17 18/18/17 50/18/17
f 17/17/17 50/18/17 49/17/17
f 18/18/18 19/19/18 51/19/18
f 18/18/18 51/19/18 50/18/18
f 19/19/19 20/20/19 52/20/19
f 19/19/19 52/20/19 51/19/19
f 20/20/20 21/21/20 53/21/20
f 20/20/20 53/21/20 52/20/20
f 21/21/21 22/22/21 54/22/21
f 21/21/21 54/22/21 53/21/21
f 22/22/22 23/23/22 55/23/22
f 22/22/22 55/23/22 54/22/22
f 23/23/23 24/24/23 56/24/23
f 23/23/23 56/24/23 55/23/23
f 24/24/24 25/25/24 57/25/24
f 24/24/24 57/25/24 56/24/24
f 25/25/25 26/26/25 58/26/25
f 25/25/25 58/26/25 57/25/25
f 26/26/26 27/27/26 59/27/26
f 26/26/26 59/27/26 58/26/26
f 27/27/27 28/28/27 60/28/27
f 27/27/27 60/28/27 59/27/27
f 28/28/28 29/29/28 61/29/28
f 28/28/28 61/29/28 60/28/28
f 29/29/29 30/30/29 62/30/29
f 29/29/29 62/30/29 61/29/29
f 30/30/30 31/31/30 63/31/30
f 30/30/30 63/31/30 62/30/30
f 31/31/31 32/32/31 64/32/31
f 31/31/31 64/32/31 63/31/31
f 32/32/32 1/1/32 33/1/32
f 32/32/32 33/1/32 64/32/32
