# Blender v2.76 (sub 0) OBJ File: 'reaction_wheel.blend'
# www.blender.org
mtllib reaction_wheel.mtl
o Cylinder
v 0.000000 1.000000 -1.000000
v 0.000000 1.000000 1.000000
v 0.195090 0.980785 -1.000000
v 0.195090 0.980785 1.000000
v 0.382683 0.923880 -1.000000
v 0.382683 0.923879 1.000000
v 0.555570 0.831470 -1.000000
v 0.555570 0.831470 1.000000
v 0.707107 0.707107 -1.000000
v 0.707107 0.707107 1.000000
v 0.831470 0.555570 -1.000000
v 0.831470 0.555570 1.000000
v 0.923880 0.382683 -1.000000
v 0.923880 0.382683 1.000000
v 0.980785 0.195090 -1.000000
v 0.980785 0.195090 1.000000
v 1.000000 0.000000 -1.000000
v 1.000000 0.000000 1.000000
v 0.980785 -0.195090 -1.000000
v 0.980785 -0.195090 1.000000
v 0.923880 -0.382683 -1.000000
v 0.923880 -0.382683 1.000000
v 0.831470 -0.555570 -1.000000
v 0.831470 -0.555570 1.000000
v 0.707107 -0.707107 -1.000000
v 0.707107 -0.707107 1.000000
v 0.555570 -0.831470 -1.000000
v 0.555570 -0.831470 1.000000
v 0.382683 -0.923880 -1.000000
v 0.382683 -0.923880 1.000000
v 0.195090 -0.980785 -1.000000
v 0.195090 -0.980785 1.000000
v -0.000000 -1.000000 -1.000000
v -0.000000 -1.000000 1.000000
v -0.195091 -0.980785 -1.000000
v -0.195091 -0.980785 1.000000
v -0.382684 -0.923879 -1.000000
v -0.382684 -0.923879 1.000000
v -0.555571 -0.831469 -1.000000
v -0.555571 -0.831469 1.000000
v -0.707107 -0.707106 -1.000000
v -0.707107 -0.707106 1.000000
v -0.831470 -0.555570 -1.000000
v -0.831470 -0.555570 1.000000
v -0.923880 -0.382683 -1.000000
v -0.923880 -0.382683 1.000000
v -0.980785 -0.195089 -1.000000
v -0.980785 -0.195090 1.000000
v -1.000000 0.000001 -1.000000
v -1.000000 0.000001 1.000000
v -0.980785 0.195091 -1.000000
v -0.980785 0.195091 1.000000
v -0.923879 0.382684 -1.000000
v -0.923879 0.382684 1.000000
v -0.831469 0.555571 -1.000000
v -0.831469 0.555571 1.000000
v -0.707106 0.707108 -1.000000
v -0.707106 0.707108 1.000000
v -0.555569 0.831470 -1.000000
v -0.555569 0.831470 1.000000
v -0.382682 0.923880 -1.000000
v -0.382682 0.923880 1.000000
v -0.195089 0.980786 -1.000000
v -0.195089 0.980785 1.000000
vt 0.499999 0.318866
vt 0.499999 0.000122
vt 0.531242 0.000122
vt 0.531242 0.318866
vt 0.562484 0.000122
vt 0.562485 0.318866
vt 0.593727 0.000122
vt 0.593727 0.318866
vt 0.624969 0.000122
vt 0.624970 0.318866
vt 0.656211 0.000122
vt 0.656212 0.318866
vt 0.687454 0.000122
vt 0.687455 0.318866
vt 0.718696 0.000122
vt 0.718697 0.318866
vt 0.749939 0.000121
vt 0.749940 0.318866
vt 0.781181 0.000121
vt 0.781182 0.318866
vt 0.812423 0.000121
vt 0.812425 0.318865
vt 0.843666 0.000121
vt 0.843667 0.318865
vt 0.874908 0.000121
vt 0.874910 0.318865
vt 0.906151 0.000121
vt 0.906152 0.318865
vt 0.937393 0.000120
vt 0.937395 0.318865
vt 0.968635 0.000120
vt 0.968638 0.318865
vt 0.999878 0.000120
vt 0.999880 0.318864
vt 0.000120 0.318865
vt 0.000122 0.000121
vt 0.031364 0.000121
vt 0.031362 0.318865
vt 0.062606 0.000122
vt 0.062605 0.318865
vt 0.093849 0.000122
vt 0.093847 0.318865
vt 0.125091 0.000122
vt 0.125090 0.318865
vt 0.156333 0.000122
vt 0.156332 0.318866
vt 0.187576 0.000122
vt 0.187575 0.318866
vt 0.218818 0.000122
vt 0.218817 0.318866
vt 0.250061 0.000122
vt 0.250060 0.318866
vt 0.281303 0.000122
vt 0.281302 0.318866
vt 0.312545 0.000122
vt 0.312545 0.318866
vt 0.343788 0.000122
vt 0.343787 0.318866
vt 0.375030 0.000122
vt 0.375030 0.318866
vt 0.406272 0.000122
vt 0.406272 0.318866
vt 0.437515 0.000122
vt 0.437515 0.318866
vt 0.577279 0.600907
vt 0.551302 0.618265
vt 0.522438 0.630220
vt 0.491795 0.636315
vt 0.460553 0.636315
vt 0.429911 0.630220
vt 0.401047 0.618264
vt 0.375069 0.600907
vt 0.352978 0.578815
vt 0.335620 0.552838
vt 0.323665 0.523974
vt 0.317569 0.493332
vt 0.317569 0.462090
vt 0.323665 0.431447
vt 0.335621 0.402583
vt 0.352978 0.376606
vt 0.375070 0.354514
vt 0.401047 0.337157
vt 0.429911 0.325201
vt 0.460553 0.319106
vt 0.491796 0.319106
vt 0.522438 0.325201
vt 0.551302 0.337157
vt 0.577279 0.354514
vt 0.599370 0.376606
vt 0.616728 0.402583
vt 0.628684 0.431447
vt 0.634779 0.462089
vt 0.634779 0.493332
vt 0.628684 0.523974
vt 0.616728 0.552839
vt 0.599370 0.578816
vt 0.468757 0.318866
vt 0.468757 0.000122
vt 0.057620 0.354515
vt 0.083597 0.337157
vt 0.112461 0.325201
vt 0.143103 0.319106
vt 0.174345 0.319106
vt 0.204988 0.325201
vt 0.233852 0.337157
vt 0.259829 0.354514
vt 0.281921 0.376606
vt 0.299279 0.402583
vt 0.311235 0.431447
vt 0.317330 0.462089
vt 0.317330 0.493332
vt 0.311235 0.523974
vt 0.299279 0.552837
vt 0.281921 0.578815
vt 0.259830 0.600907
vt 0.233852 0.618264
vt 0.204987 0.630220
vt 0.174345 0.636315
vt 0.143103 0.636315
vt 0.112461 0.630220
vt 0.083596 0.618264
vt 0.057619 0.600906
vt 0.035528 0.578815
vt 0.018171 0.552837
vt 0.006215 0.523974
vt 0.000120 0.493332
vt 0.000120 0.462090
vt 0.006215 0.431448
vt 0.018171 0.402584
vt 0.035528 0.376607
vn 0.098000 0.995200 0.000000
vn 0.290300 0.956900 0.000000
vn 0.471400 0.881900 0.000000
vn 0.634400 0.773000 0.000000
vn 0.773000 0.634400 0.000000
vn 0.881900 0.471400 0.000000
vn 0.956900 0.290300 0.000000
vn 0.995200 0.098000 0.000000
vn 0.995200 -0.098000 -0.000000
vn 0.956900 -0.290300 -0.000000
vn 0.881900 -0.471400 -0.000000
vn 0.773000 -0.634400 -0.000000
vn 0.634400 -0.773000 -0.000000
vn 0.471400 -0.881900 -0.000000
vn 0.290300 -0.956900 -0.000000
vn 0.098000 -0.995200 -0.000000
vn -0.098000 -0.995200 0.000000
vn -0.290300 -0.956900 -0.000000
vn -0.471400 -0.881900 -0.000000
vn -0.634400 -0.773000 -0.000000
vn -0.773000 -0.634400 -0.000000
vn -0.881900 -0.471400 -0.000000
vn -0.956900 -0.290300 -0.000000
vn -0.995200 -0.098000 -0.000000
vn -0.995200 0.098000 0.000000
vn -0.956900 0.290300 0.000000
vn -0.881900 0.471400 0.000000
vn -0.773000 0.634400 0.000000
vn -0.634400 0.773000 0.000000
vn -0.471400 0.881900 0.000000
vn -0.000000 -0.000000 1.000000
vn -0.098000 0.995200 0.000000
vn -0.290300 0.956900 0.000000
vn 0.000000 0.000000 -1.000000
usemtl Material.001
s off
f 1/1/1 2/2/1 4/3/1 3/4/1
f 3/4/2 4/3/2 6/5/2 5/6/2
f 5/6/3 6/5/3 8/7/3 7/8/3
f 7/8/4 8/7/4 10/9/4 9/10/4
f 9/10/5 10/9/5 12/11/5 11/12/5
f 11/12/6 12/11/6 14/13/6 13/14/6
f 13/14/7 14/13/7 16/15/7 15/16/7
f 15/16/8 16/15/8 18/17/8 17/18/8
f 17/18/9 18/17/9 20/19/9 19/20/9
f 19/20/10 20/19/10 22/21/10 21/22/10
f 21/22/11 22/21/11 24/23/11 23/24/11
f 23/24/12 24/23/12 26/25/12 25/26/12
f 25/26/13 26/25/13 28/27/13 27/28/13
f 27/28/14 28/27/14 30/29/14 29/30/14
f 29/30/15 30/29/15 32/31/15 31/32/15
f 31/32/16 32/31/16 34/33/16 33/34/16
f 33/35/17 34/36/17 36/37/17 35/38/17
f 35/38/18 36/37/18 38/39/18 37/40/18
f 37/40/19 38/39/19 40/41/19 39/42/19
f 39/42/20 40/41/20 42/43/20 41/44/20
f 41/44/21 42/43/21 44/45/21 43/46/21
f 43/46/22 44/45/22 46/47/22 45/48/22
f 45/48/23 46/47/23 48/49/23 47/50/23
f 47/50/24 48/49/24 50/51/24 49/52/24
f 49/52/25 50/51/25 52/53/25 51/54/25
f 51/54/26 52/53/26 54/55/26 53/56/26
f 53/56/27 54/55/27 56/57/27 55/58/27
f 55/58/28 56/57/28 58/59/28 57/60/28
f 57/60/29 58/59/29 60/61/29 59/62/29
f 59/62/30 60/61/30 62/63/30 61/64/30
f 4/65/31 2/66/31 64/67/31 62/68/31 60/69/31 58/70/31 56/71/31 54/72/31 52/73/31 50/74/31 48/75/31 46/76/31 44/77/31 42/78/31 40/79/31 38/80/31 36/81/31 34/82/31 32/83/31 30/84/31 28/85/31 26/86/31 24/87/31 22/88/31 20/89/31 18/90/31 16/91/31 14/92/31 12/93/31 10/94/31 8/95/31 6/96/31
f 63/97/32 64/98/32 2/2/32 1/1/32
f 61/64/33 62/63/33 64/98/33 63/97/33
f 1/99/34 3/100/34 5/101/34 7/102/34 9/103/34 11/104/34 13/105/34 15/106/34 17/107/34 19/108/34 21/109/34 23/110/34 25/111/34 27/112/34 29/113/34 31/114/34 33/115/34 35/116/34 37/117/34 39/118/34 41/119/34 43/120/34 45/121/34 47/122/34 49/123/34 51/124/34 53/125/34 55/126/34 57/127/34 59/128/34 61/129/34 63/130/34
