# generated by gen_wing.py (delta wing: chord=2 span=2 t=0.1)
o Wing
v -1.000000 0.050000 -1.000000
v 1.000000 0.050000 -1.000000
v 0.000000 0.050000 1.000000
v -1.000000 -0.050000 -1.000000
v 1.000000 -0.050000 -1.000000
v 0.000000 -0.050000 1.000000
vt 0.000000 0.000000
vt 0.000000 0.000000
vt 0.000000 0.000000
vt 0.000000 0.000000
vt 0.000000 0.000000
vt 0.000000 0.000000
vn -0.768216 0.429446 -0.474784
vn 0.871716 0.487304 -0.051446
vn 0.000000 0.745356 0.666667
vn -0.616396 -0.689152 -0.380954
vn 0.435858 -0.487304 -0.756679
vn 0.000000 -0.487950 0.872872
f 1/1/1 3/3/3 2/2/2
f 4/4/4 5/5/5 6/6/6
f 1/1/1 5/5/5 4/4/4
f 1/1/1 2/2/2 5/5/5
f 1/1/1 6/6/6 3/3/3
f 1/1/1 4/4/4 6/6/6
f 2/2/2 6/6/6 5/5/5
f 2/2/2 3/3/3 6/6/6
